<svg xmlns="http://www.w3.org/2000/svg" width="210.762" height="128.491" viewBox="0 0 210.762 128.491">
  <path id="Icon_awesome-graduation-cap" data-name="Icon awesome-graduation-cap" d="M200.084,33.179,110.4,5.626a25.683,25.683,0,0,0-15.043,0L5.677,33.179a7.569,7.569,0,0,0,0,14.657l15.635,4.8a25.335,25.335,0,0,0-5.749,15.079,9.921,9.921,0,0,0-.82,17.046L6.535,121.7a5.143,5.143,0,0,0,5.019,6.26h18.04a5.144,5.144,0,0,0,5.022-6.26L26.407,84.764a9.9,9.9,0,0,0-.579-16.885A15.167,15.167,0,0,1,32.48,56.073L95.357,75.392a25.712,25.712,0,0,0,15.043,0l89.684-27.553a7.571,7.571,0,0,0,0-14.661ZM113.422,85.227a35.99,35.99,0,0,1-21.088,0L45.71,70.9l-4.559,36.478c0,11.365,27.637,20.576,61.729,20.576s61.729-9.211,61.729-20.576L160.05,70.9Z" transform="translate(2.5 -1.968)" fill="none" stroke="#861626" stroke-width="5"/>
</svg>
