<svg xmlns="http://www.w3.org/2000/svg" width="145" height="145" viewBox="0 0 145 145">
  <path id="Icon_awesome-donate" data-name="Icon awesome-donate" d="M69.5,112.938A56.469,56.469,0,1,0,13.031,56.469,56.46,56.46,0,0,0,69.5,112.938ZM63.473,26.443V21.882a4.5,4.5,0,0,1,4.507-4.507h3.013A4.5,4.5,0,0,1,75.5,21.882V26.5a21.4,21.4,0,0,1,11.674,4.181A3.044,3.044,0,0,1,87.5,35.32l-4.425,4.208a3.061,3.061,0,0,1-3.8.271,8.935,8.935,0,0,0-4.832-1.385H63.88a4.722,4.722,0,0,0-4.425,4.968,4.9,4.9,0,0,0,3.285,4.778l16.913,5.077A17.008,17.008,0,0,1,91.517,69.554,16.74,16.74,0,0,1,75.473,86.495v4.561a4.5,4.5,0,0,1-4.507,4.507H67.953a4.5,4.5,0,0,1-4.507-4.507V86.441A21.4,21.4,0,0,1,51.772,82.26a3.044,3.044,0,0,1-.326-4.642l4.425-4.208a3.061,3.061,0,0,1,3.8-.271A8.935,8.935,0,0,0,64.5,74.522H75.065a4.722,4.722,0,0,0,4.425-4.968,4.9,4.9,0,0,0-3.285-4.778L59.292,59.7A17.008,17.008,0,0,1,47.428,43.383,16.758,16.758,0,0,1,63.473,26.443Zm66.839,69.12h-8.823a65.8,65.8,0,0,1-19.818,17.375h17.321a2.423,2.423,0,0,1,2.606,2.172v4.344a2.423,2.423,0,0,1-2.606,2.172H19.981a2.423,2.423,0,0,1-2.606-2.172v-4.344a2.423,2.423,0,0,1,2.606-2.172H37.3A66.125,66.125,0,0,1,17.484,95.563h-8.8A8.678,8.678,0,0,0,0,104.25v26.063A8.678,8.678,0,0,0,8.688,139H130.313A8.678,8.678,0,0,0,139,130.313V104.25A8.678,8.678,0,0,0,130.313,95.563Z" transform="translate(3 3)" fill="none" stroke="#861626" stroke-width="6"/>
</svg>
