<?xml version="1.0" standalone="no"?>
<!DOCTYPE svg PUBLIC "-//W3C//DTD SVG 20010904//EN"
 "http://www.w3.org/TR/2001/REC-SVG-20010904/DTD/svg10.dtd">
<svg version="1.0" xmlns="http://www.w3.org/2000/svg"
 width="469.000000pt" height="535.000000pt" viewBox="0 0 469.000000 535.000000"
 preserveAspectRatio="xMidYMid meet">
<metadata>
Created by potrace 1.16, written by Peter Selinger 2001-2019
</metadata>
<g transform="translate(0.000000,535.000000) scale(0.100000,-0.100000)"
fill="#000000" stroke="none">
<path d="M0 5181 l0 -169 22 5 c19 4 20 3 8 -6 -12 -9 -8 -11 18 -9 20 1 31 7
28 14 -6 15 13 34 34 34 21 0 53 34 43 45 -5 4 -2 5 5 1 11 -6 11 -11 0 -24
-11 -14 -9 -14 8 1 11 9 24 14 29 10 4 -5 5 -2 1 5 -4 7 -12 10 -17 7 -5 -4
-9 -1 -9 6 0 8 11 10 33 6 27 -5 29 -4 10 5 -28 14 -35 43 -14 62 10 9 21 16
25 16 5 0 -2 -9 -15 -20 -28 -23 -6 -28 24 -6 21 16 23 26 7 36 -8 5 -7 9 5
13 9 4 13 3 10 -3 -3 -6 1 -10 9 -10 9 0 16 5 16 10 0 6 5 10 11 10 5 0 7 -5
3 -12 -5 -8 -2 -9 12 -4 10 5 24 9 31 9 7 0 9 5 5 11 -10 17 -11 37 -1 30 5
-3 7 -9 4 -14 -3 -4 2 -11 11 -14 24 -9 28 -7 14 9 -14 17 -5 36 15 29 7 -3
19 3 26 15 9 13 17 17 24 11 16 -13 55 16 55 40 0 18 -12 19 -245 20 l-245 1
0 -170z"/>
<path d="M2210 5331 c6 -11 6 -22 1 -25 -5 -3 -12 -36 -16 -73 -6 -65 -97
-590 -170 -983 -19 -102 -39 -217 -46 -256 l-12 -72 -68 -6 c-64 -7 -69 -9
-64 -29 5 -20 30 -185 41 -267 l5 -35 -90 -48 c-87 -45 -91 -49 -88 -78 l2
-31 -642 -324 c-353 -178 -653 -325 -667 -326 -37 -3 -32 -12 19 -39 26 -14
45 -32 47 -44 2 -11 17 -29 35 -40 l32 -20 -1 -277 c0 -277 -1 -278 -22 -278
-11 0 -39 -3 -61 -6 -30 -4 -36 -3 -25 5 12 9 11 11 -7 11 -27 0 -38 16 -17
24 15 6 15 8 0 31 -19 28 -10 34 11 8 12 -16 13 -15 6 12 -4 17 -6 38 -5 48 0
9 -3 17 -8 17 -5 0 -7 7 -4 15 4 8 1 15 -6 15 -6 0 -8 5 -5 10 3 6 -1 10 -9
10 -8 0 -20 9 -26 21 -9 16 -8 20 2 18 27 -3 39 1 32 12 -4 8 1 9 16 4 16 -5
20 -4 15 5 -5 8 -2 10 11 6 11 -3 25 -2 33 3 11 7 9 11 -8 20 -14 8 -21 8 -21
1 0 -5 -9 -10 -20 -10 -13 0 -22 9 -26 26 -5 18 -12 24 -24 21 -13 -3 -19 2
-23 19 -2 13 1 25 7 27 6 3 3 8 -7 12 -17 7 -16 10 9 36 l27 28 -25 10 c-34
13 -45 31 -19 31 12 0 21 6 21 14 0 8 7 17 16 20 8 3 12 11 9 17 -4 6 -13 8
-21 5 -8 -3 -14 -1 -14 4 0 5 -9 12 -20 15 -16 5 -18 10 -10 24 5 10 6 21 3
25 -3 3 0 6 9 6 8 0 15 6 15 14 0 20 -32 14 -60 -11 l-25 -21 -6 21 c-3 11 0
25 7 31 7 6 10 10 8 9 -2 -1 -13 3 -24 9 -19 10 -19 11 -3 20 13 7 16 17 11
35 -3 14 -2 22 3 19 6 -3 15 1 22 9 10 11 9 18 -5 31 -14 14 -18 15 -25 4 -5
-8 -6 -18 -4 -22 3 -4 -2 -8 -11 -8 -8 0 -18 -7 -21 -15 -4 -11 -21 -15 -56
-15 -33 0 -47 4 -42 11 3 6 17 8 31 4 21 -5 24 -3 18 15 -6 20 -5 21 38 24 13
1 37 21 37 30 0 3 -7 6 -16 6 -11 0 -14 5 -10 16 3 8 2 24 -4 33 -12 23 -1 35
17 20 10 -9 13 -8 13 1 0 8 3 10 6 7 4 -3 15 -2 26 4 14 7 23 7 34 -2 8 -6 17
-9 21 -5 3 3 2 6 -4 6 -6 0 -14 7 -17 16 -5 14 -4 15 8 5 9 -7 16 -8 20 -2 4
5 -20 17 -51 26 -50 15 -55 18 -38 28 27 14 34 27 27 46 -4 13 -3 14 9 5 10
-8 21 -7 39 2 14 8 23 14 20 15 -3 0 -14 3 -25 6 -11 3 -33 6 -50 8 -48 3 -51
5 -32 16 9 5 22 7 29 3 7 -4 8 -3 4 4 -5 8 0 12 13 12 12 0 21 5 21 10 0 10
-22 14 -70 12 -16 0 -18 1 -7 5 20 5 20 8 7 33 -8 15 -6 17 10 13 23 -6 27 12
5 21 -8 3 -15 10 -15 15 0 6 7 8 15 5 8 -4 15 -1 15 5 0 6 7 8 15 5 8 -4 15
-1 15 6 0 9 -15 11 -55 7 -31 -3 -55 -2 -55 4 0 5 6 9 13 9 9 0 14 13 15 35 1
27 -2 35 -16 35 -21 0 -42 19 -42 38 0 10 4 10 22 -2 37 -26 42 -18 9 13 -31
29 -40 51 -21 51 7 0 7 6 2 18 -5 9 -7 32 -5 50 3 20 0 32 -8 32 -6 0 -9 -6
-6 -14 4 -11 -7 -17 -44 -25 -28 -6 -51 -11 -53 -11 -2 0 -1 11 2 25 2 14 9
25 14 25 5 0 6 5 3 11 -4 5 0 18 9 28 16 17 15 19 -3 24 -25 6 -24 45 1 53 20
6 24 24 6 24 -7 1 -2 7 12 15 l25 14 -32 1 c-17 0 -35 -5 -38 -11 -4 -6 -13
-8 -21 -5 -12 5 -14 -42 -14 -295 0 -296 0 -301 20 -296 11 3 23 1 26 -4 3 -5
-6 -9 -20 -9 l-26 0 0 -376 c0 -359 1 -376 19 -381 16 -4 17 -8 7 -29 -6 -13
-14 -24 -18 -24 -5 0 -8 -180 -8 -400 0 -260 4 -400 10 -400 6 0 10 6 10 13 0
9 3 8 9 -2 6 -9 11 -10 15 -2 4 6 18 11 32 11 21 0 23 3 15 19 -8 15 -7 20 5
25 8 3 13 10 10 15 -3 5 9 16 27 24 24 11 66 14 166 13 l135 -1 3 -32 c4 -31
2 -33 -26 -33 -24 0 -28 -3 -24 -20 4 -15 0 -20 -16 -20 -12 0 -21 6 -21 15 0
10 -10 15 -32 14 -18 0 -27 -3 -20 -6 17 -7 15 -21 -5 -27 -12 -3 -9 -5 7 -4
14 0 69 0 123 -1 l98 -1 -3 -57 c-3 -56 -3 -56 -43 -70 -60 -21 -185 -45 -201
-39 -8 3 -14 2 -14 -3 0 -4 -33 -13 -72 -20 -40 -7 -99 -17 -130 -23 l-58 -11
0 -238 c0 -162 3 -239 11 -239 5 0 7 -4 4 -10 -3 -5 -2 -10 3 -10 6 0 8 -8 5
-19 -6 -23 14 -38 30 -22 19 19 27 12 26 -21 -1 -24 -3 -27 -6 -10 -2 12 -9
22 -15 22 -6 0 -8 -10 -4 -24 11 -43 -7 -36 -30 12 l-23 47 -1 -42 c0 -34 4
-43 18 -43 16 -1 16 -1 -1 -11 -13 -8 -15 -14 -7 -30 7 -13 7 -19 0 -19 -6 0
-10 -78 -10 -231 0 -180 3 -230 13 -226 6 2 12 11 12 21 0 9 11 26 25 37 14
12 18 18 10 14 -8 -4 -6 1 4 9 11 9 25 16 30 16 6 0 5 -4 -2 -9 -11 -7 -10 -9
3 -14 20 -8 67 21 58 36 -3 5 -2 7 3 4 6 -3 16 -2 24 4 12 7 11 9 -5 9 -17 0
-17 2 -5 10 13 8 12 10 -2 10 -22 0 -24 26 -3 34 8 3 15 0 15 -7 0 -8 13 -13
33 -12 22 0 31 4 29 14 -2 8 3 11 13 8 8 -4 15 -2 15 2 0 5 -7 11 -15 15 -8 3
-15 11 -15 18 0 9 3 9 12 0 22 -22 52 -12 106 33 30 25 50 45 45 45 -5 0 -15
-6 -22 -13 -11 -9 -13 -9 -7 0 4 7 4 18 0 25 -5 8 -10 6 -16 -8 -8 -18 -8 -18
-5 0 2 16 11 19 52 20 40 1 50 4 49 17 -1 11 5 15 16 12 10 -3 17 1 17 10 0 9
-6 13 -15 9 -11 -4 -14 -1 -10 9 4 10 -2 14 -19 14 -21 0 -23 -4 -18 -25 l7
-25 -20 23 c-11 13 -23 19 -26 14 -3 -6 1 -12 9 -16 16 -6 21 -36 7 -36 -5 0
-17 6 -27 14 -13 10 -25 11 -37 5 -10 -5 -19 -5 -22 0 -4 5 0 12 6 14 8 3 6 6
-4 6 -32 2 -19 21 13 21 26 0 29 3 20 14 -8 10 -9 15 -1 18 6 2 12 10 13 18 2
8 7 21 11 29 7 11 5 13 -7 8 -11 -4 -17 -1 -17 7 0 15 -27 29 -40 21 -5 -3
-11 -1 -15 5 -3 5 -1 10 5 10 6 0 8 5 5 10 -4 6 -11 7 -17 4 -7 -5 -8 -2 -4 5
6 9 12 9 25 -3 14 -13 20 -13 31 -3 10 9 11 9 6 0 -9 -16 8 -17 35 -2 20 10
20 11 2 32 -18 20 -17 20 13 -1 28 -19 33 -20 38 -6 3 9 4 19 1 24 -3 5 13 11
35 15 43 7 55 24 18 26 -22 1 -22 1 2 9 39 12 50 11 50 -6 0 -23 18 -7 40 37
11 21 26 39 33 39 8 0 9 -3 1 -8 -16 -11 -26 -44 -12 -40 6 2 16 18 22 36 12
35 29 32 41 -7 4 -15 3 -21 -3 -17 -5 3 -15 -1 -22 -9 -7 -8 -9 -15 -4 -15 5
0 2 -5 -6 -10 -12 -8 -11 -10 8 -10 23 0 31 -24 10 -34 -7 -3 -2 -3 11 0 21 5
23 3 18 -15 -3 -11 -1 -21 4 -21 5 0 9 5 9 11 0 5 4 8 9 5 5 -3 12 1 15 9 3
10 -1 18 -11 22 -14 6 -12 9 12 19 20 9 24 13 12 14 -10 0 -15 5 -12 10 3 6
-2 10 -11 10 -33 0 -7 10 38 15 41 4 47 2 52 -18 3 -12 6 -31 6 -42 0 -15 -2
-17 -9 -6 -8 13 -56 19 -67 9 -2 -3 -2 -12 1 -21 9 -21 54 -28 68 -10 7 8 20
23 29 33 9 10 14 21 12 24 -2 3 -1 4 2 1 4 -2 21 7 39 21 20 15 39 22 50 18 9
-4 20 -2 24 3 3 6 20 19 36 29 83 51 124 80 125 87 0 5 -4 6 -9 2 -5 -3 -12
-1 -15 4 -4 5 2 8 11 6 38 -6 96 42 87 72 -3 10 2 7 11 -7 14 -23 15 -23 10
-3 -4 16 0 25 17 34 19 9 21 9 10 -2 -22 -24 -13 -30 18 -12 40 23 37 42 -5
33 -32 -7 -77 0 -90 14 -22 21 -23 20 -17 -9 5 -29 -4 -32 -30 -8 -12 11 -18
12 -18 3 0 -7 -7 -10 -17 -6 -9 4 -20 1 -25 -6 -5 -9 -8 -3 -8 16 0 19 -4 27
-14 23 -7 -3 -20 3 -30 14 -23 28 -20 32 14 14 32 -17 55 -20 27 -4 -24 14
-21 24 7 24 15 0 22 -5 18 -13 -3 -10 2 -13 19 -10 18 2 23 9 22 26 -2 13 1
21 7 17 6 -3 10 -15 10 -26 0 -10 5 -19 10 -19 13 0 13 6 -1 32 -18 33 -2 32
33 -3 18 -18 27 -29 19 -24 -11 6 -13 4 -8 -9 4 -10 7 -20 7 -22 0 -2 5 -4 10
-4 6 0 10 7 10 15 0 9 6 12 15 9 8 -4 15 -2 15 3 0 5 8 10 18 11 9 0 42 5 72
10 30 5 57 8 60 5 8 -7 -24 -23 -38 -18 -7 3 -10 0 -7 -5 9 -14 -8 -12 -24 2
-11 11 -12 10 -6 -1 6 -11 4 -13 -8 -8 -9 3 -27 2 -39 -3 -22 -8 -21 -9 9 -15
18 -4 30 -12 27 -17 -4 -6 1 -6 12 0 32 18 148 102 141 102 -4 0 -3 9 3 19 7
14 6 21 -3 25 -6 3 -2 3 9 1 12 -3 32 -1 45 4 13 5 48 6 77 3 50 -4 53 -6 52
-31 -1 -14 -2 -71 -1 -126 l1 -100 83 2 c45 1 143 7 217 13 216 17 401 25 455
20 l50 -6 -53 -7 c-29 -4 -91 -10 -139 -13 -92 -5 -123 -13 -57 -15 21 -1 31
-3 22 -6 -10 -2 -18 -9 -18 -14 0 -6 -6 -9 -12 -8 -22 3 -78 -13 -78 -22 0 -5
-7 -9 -15 -9 -9 0 -12 -6 -9 -15 4 -10 0 -15 -10 -15 -9 0 -19 -7 -22 -15 -4
-9 -11 -14 -18 -13 -6 1 -22 -4 -36 -11 -23 -13 -24 -15 -5 -22 26 -10 77 -11
71 -1 -7 11 116 6 147 -6 16 -7 41 -12 56 -12 16 0 47 -7 69 -14 23 -8 44 -11
47 -7 6 11 73 -19 79 -35 8 -20 -54 -42 -124 -43 -36 -1 -78 -4 -95 -7 -29 -5
-84 -10 -133 -13 -13 -1 -20 -5 -17 -11 4 -6 11 -8 16 -5 5 3 6 0 3 -8 -2 -7
-11 -14 -19 -14 -8 0 -12 3 -11 6 2 3 -15 6 -38 7 -22 0 -55 4 -71 8 -27 8
-28 9 -10 17 15 6 10 7 -15 4 -19 -2 -37 -4 -40 -6 -3 -1 -9 -1 -14 0 -5 1 -6
-5 -3 -13 4 -9 2 -18 -3 -21 -6 -4 -10 2 -11 12 0 10 -3 13 -6 6 -2 -7 -15
-13 -28 -13 -13 0 -26 -4 -29 -9 -3 -5 -16 -7 -29 -4 -18 4 -19 3 -7 -6 8 -6
29 -11 45 -12 26 0 27 -2 10 -9 l-20 -9 20 0 c39 -1 150 20 153 30 2 5 8 9 13
9 6 0 7 -4 4 -10 -3 -5 -1 -10 4 -10 6 0 11 4 11 10 0 5 7 7 15 4 8 -4 12 -11
8 -17 -3 -6 -1 -7 6 -3 6 4 9 12 6 17 -4 5 -2 9 4 9 5 0 12 -4 15 -9 3 -5 19
-11 35 -13 17 -2 27 0 24 5 -3 5 14 6 41 2 31 -5 46 -4 46 4 0 6 4 11 9 11 10
0 9 -25 -2 -36 -3 -4 -25 -8 -49 -9 -24 -1 -60 -12 -81 -24 -20 -11 -37 -17
-38 -13 0 4 -4 -2 -8 -13 -11 -27 -5 -35 30 -35 29 0 39 13 19 25 -14 9 -12
25 3 25 8 0 19 -10 26 -22 6 -13 9 -15 7 -6 -6 19 10 26 16 7 2 -5 26 -11 54
-12 46 -2 51 0 72 31 l22 33 -25 -3 c-13 -2 -24 0 -25 5 -1 23 1 27 16 27 8 0
12 4 9 10 -3 5 -2 10 4 10 5 0 12 -4 16 -9 3 -6 23 -2 46 8 23 10 51 16 62 13
19 -5 19 -7 4 -10 -9 -2 -15 -8 -11 -13 3 -5 9 -7 14 -4 5 3 35 8 67 11 32 3
78 12 103 21 26 9 86 16 144 18 70 2 101 6 107 16 8 11 14 8 34 -15 13 -16 31
-47 41 -68 20 -45 8 -68 -38 -68 -17 0 -27 -4 -23 -10 3 -5 -3 -10 -15 -10
-12 0 -19 -4 -16 -9 3 -5 -1 -12 -10 -15 -8 -3 -12 -10 -9 -16 4 -6 10 -8 15
-5 4 3 10 0 12 -6 2 -7 35 -12 80 -14 42 -2 81 -6 86 -9 12 -7 122 -193 122
-205 0 -5 7 -14 15 -21 9 -7 14 -15 11 -17 -4 -4 28 -59 52 -88 4 -5 23 -41
42 -78 22 -42 43 -70 55 -73 11 -2 310 -3 665 -2 l645 3 -47 30 c-38 24 -44
31 -30 37 13 5 12 7 -8 7 -15 1 -68 33 -130 80 -58 44 -125 95 -150 113 -64
47 -69 51 -88 68 -9 8 -38 28 -64 45 -31 19 -43 32 -35 37 8 5 6 8 -6 8 -20 0
-97 49 -97 61 0 5 -5 9 -10 9 -6 0 -24 10 -40 22 -22 16 -27 24 -18 30 9 5 6
8 -9 8 -24 0 -60 25 -308 210 -270 202 -356 271 -350 281 4 5 29 9 57 9 40 0
63 -7 112 -37 33 -20 68 -42 76 -50 8 -7 69 -48 135 -91 66 -43 160 -104 208
-135 67 -44 93 -56 110 -51 19 6 20 5 9 -8 -10 -12 -6 -18 23 -34 19 -10 35
-22 35 -25 0 -4 7 -10 16 -13 10 -4 13 -2 8 7 -4 6 3 1 16 -11 17 -18 24 -21
31 -11 4 7 5 17 3 21 -3 4 2 8 11 8 8 0 18 -7 22 -16 4 -12 14 -14 35 -10 36
7 67 -8 65 -32 -1 -21 -57 -25 -57 -3 0 7 -6 11 -14 8 -7 -3 -21 4 -31 16 -14
16 -20 18 -23 7 -6 -17 33 -50 69 -57 16 -3 27 -8 26 -12 -4 -11 38 -45 87
-71 26 -14 59 -35 74 -47 l27 -22 -35 -2 c-26 -1 -21 -3 22 -9 31 -4 64 -15
73 -24 9 -9 23 -16 32 -16 13 0 13 2 2 17 -13 15 -12 15 8 4 12 -6 34 -23 49
-36 15 -14 35 -25 45 -25 11 0 19 -4 19 -10 0 -5 9 -10 19 -10 11 0 27 -7 35
-16 9 -8 16 -12 17 -7 0 4 4 -2 9 -14 5 -13 16 -23 25 -23 13 0 15 -18 15
-110 0 -91 3 -110 15 -110 13 0 15 304 15 2675 0 2371 -2 2675 -15 2675 -13 0
-15 -24 -15 -154 0 -93 -4 -157 -10 -161 -5 -3 -10 2 -10 12 0 14 -2 15 -9 5
-4 -8 -12 -13 -17 -11 -5 1 -11 -6 -12 -17 -2 -10 -8 -23 -13 -29 -5 -5 -9
-19 -9 -31 0 -20 -17 -34 -41 -34 -6 0 -7 9 -4 21 5 15 4 19 -4 15 -15 -10
-14 -26 5 -47 15 -16 14 -20 -3 -43 -19 -27 -48 -31 -48 -6 0 9 -9 15 -23 14
-12 -1 -22 4 -22 12 0 8 8 14 18 15 10 0 12 3 5 6 -7 2 -13 11 -13 19 0 20
-65 22 -85 2 -7 -6 0 -7 19 -2 21 5 27 4 22 -5 -4 -6 -12 -8 -18 -5 -7 5 -9 1
-5 -9 3 -9 -1 -18 -10 -21 -11 -4 -14 -2 -9 9 3 8 2 15 -2 15 -10 0 -34 -29
-52 -64 -36 -70 -33 -68 -67 -66 -5 1 -7 10 -5 20 2 11 -2 20 -8 20 -6 0 -9
-4 -6 -9 4 -5 -14 -7 -38 -5 -25 2 -47 1 -50 -4 -2 -4 -6 -33 -8 -64 -1 -31
-6 -54 -9 -52 -4 2 -12 -2 -18 -10 -6 -7 -22 -11 -36 -8 -28 5 -58 -15 -51
-34 3 -7 0 -14 -7 -17 -7 -2 -11 -18 -9 -40 4 -38 -21 -87 -44 -87 -8 0 -11
-6 -7 -17 6 -17 5 -17 -14 0 -26 23 -37 22 -53 -7 -17 -34 -41 -41 -47 -16 -3
11 -10 17 -15 14 -5 -3 -18 2 -29 12 -18 16 -19 16 -19 -4 0 -12 -5 -22 -11
-22 -6 0 -9 7 -5 15 5 14 -4 17 -41 15 -5 -1 -7 -11 -5 -24 3 -24 -22 -43 -34
-25 -4 6 -11 6 -20 -2 -15 -13 -20 -34 -5 -24 5 3 12 1 16 -5 6 -9 -7 -14 -27
-11 -21 3 -42 -77 -27 -101 4 -7 0 -17 -9 -24 -13 -10 -14 -15 -5 -25 13 -13
-5 -38 -29 -40 -7 0 0 -5 15 -11 18 -6 26 -15 23 -24 -3 -8 -2 -14 3 -14 5 0
11 -9 14 -20 3 -11 10 -20 15 -20 5 0 12 9 15 20 6 23 37 28 37 6 0 -8 5 -16
11 -18 9 -3 9 -9 1 -25 -9 -17 -9 -22 3 -27 8 -3 15 -1 15 4 0 14 29 12 44 -3
7 -7 16 -24 19 -39 4 -14 10 -34 13 -43 6 -15 4 -16 -16 -5 -12 7 -20 7 -16 2
8 -13 -2 -19 -38 -26 -18 -3 -26 -1 -23 7 2 7 -4 23 -14 36 -10 13 -16 28 -13
33 4 6 -2 7 -16 3 -15 -5 -20 -4 -16 4 4 6 3 11 -2 11 -17 0 -22 -28 -7 -40
10 -8 11 -19 4 -46 -6 -19 -7 -39 -3 -46 5 -7 3 -8 -6 -3 -10 6 -12 4 -7 -8 5
-14 1 -17 -23 -15 -17 1 -30 6 -30 10 0 4 -4 8 -10 8 -5 0 -10 -7 -10 -16 0
-8 -4 -13 -9 -9 -5 3 -12 1 -16 -5 -3 -5 -1 -10 5 -10 6 0 10 -8 8 -17 -2 -10
2 -18 7 -18 6 -1 24 -5 42 -9 24 -5 31 -12 28 -27 -2 -10 2 -19 8 -19 7 0 4
-5 -6 -11 -13 -8 -15 -14 -7 -30 9 -15 7 -19 -5 -19 -8 0 -15 -4 -15 -10 0 -5
6 -10 14 -10 23 0 39 -27 27 -47 -10 -17 -10 -17 -11 0 0 15 -3 16 -22 6 -22
-12 -22 -11 -8 6 14 17 13 18 -7 13 -13 -4 -23 -2 -23 3 0 5 -12 4 -26 -1 -27
-11 -48 -5 -39 10 3 5 -1 22 -9 37 -14 26 -15 27 -16 6 0 -13 5 -23 10 -23 6
0 0 -12 -14 -27 -26 -28 -49 -26 -26 2 8 10 9 15 1 15 -6 0 -11 -6 -11 -12 0
-8 -7 -5 -15 6 -18 23 -20 14 -4 -17 9 -17 6 -16 -15 6 -22 24 -29 27 -41 17
-18 -15 -19 -37 -2 -43 6 -3 -2 -6 -20 -6 -17 -1 -35 4 -39 10 -4 8 1 9 16 4
19 -6 22 -4 17 9 -4 9 -2 16 3 16 6 0 5 11 -2 25 -7 16 -14 21 -19 14 -5 -8
-8 -8 -11 1 -2 7 -10 5 -23 -7 -24 -21 -23 -88 0 -79 7 2 16 -2 19 -10 5 -13
-6 -19 -27 -15 -5 1 -6 -3 -2 -9 3 -6 -4 -10 -17 -11 l-23 0 23 -10 c13 -5 21
-13 18 -18 -4 -5 6 -19 21 -31 21 -17 24 -23 14 -30 -15 -9 -53 9 -45 21 6 10
-26 20 -38 12 -7 -3 -8 -1 -4 5 4 7 1 12 -10 12 -11 0 -15 -6 -11 -19 3 -14 1
-18 -9 -14 -7 3 -13 8 -12 11 0 4 0 13 -1 21 -2 24 -31 -9 -31 -35 0 -13 -4
-24 -10 -24 -16 0 -11 -36 8 -52 9 -9 24 -14 33 -13 12 2 15 -4 13 -21 -2 -19
2 -24 22 -24 15 0 24 -6 24 -15 0 -8 5 -15 11 -15 7 0 9 -11 6 -28 -3 -15 -2
-34 3 -41 5 -9 -1 -22 -17 -37 l-25 -24 24 -9 c24 -9 64 -58 55 -67 -2 -3
-122 54 -266 126 l-262 130 6 33 c6 32 6 32 -92 84 -54 29 -109 62 -123 74
-14 11 -19 18 -12 14 6 -3 12 -2 12 3 0 6 -7 12 -15 16 -28 10 -17 36 15 36
17 0 30 5 30 10 0 6 -4 10 -9 10 -12 0 -41 29 -41 40 0 5 14 5 31 0 24 -7 30
-6 26 4 -3 8 -2 17 3 22 4 5 13 32 18 59 6 28 14 58 17 68 6 15 0 17 -59 17
-59 0 -67 2 -76 23 -21 48 -217 1120 -232 1267 -5 52 -15 98 -21 102 -9 6 -9
12 1 28 11 18 10 20 -13 20 -22 0 -24 -3 -15 -19z m1760 -1642 c0 -5 7 -9 15
-9 8 0 15 -7 15 -15 0 -18 40 -20 41 -2 0 6 4 4 8 -7 7 -18 8 -18 25 -1 20 20
35 12 17 -9 -7 -9 -23 -13 -38 -10 -41 8 -85 -44 -50 -60 9 -5 9 -7 -1 -12 -6
-3 -9 -10 -6 -16 4 -6 0 -14 -7 -19 -11 -6 -11 -11 -1 -21 10 -10 18 -5 42 22
26 32 29 33 30 13 0 -12 5 -25 12 -29 6 -4 8 -3 4 4 -3 6 3 13 14 17 26 8 26
25 -1 25 -11 0 -18 4 -15 9 8 12 55 20 62 10 3 -5 0 -9 -5 -9 -6 0 -11 -4 -11
-10 0 -5 6 -10 14 -10 12 0 13 -7 5 -32 -12 -43 -12 -44 7 -62 14 -15 14 -16
-1 -16 -12 0 -15 -6 -10 -20 4 -13 1 -22 -9 -26 -9 -3 -16 -10 -16 -16 0 -5 5
-6 10 -3 14 9 12 -6 -6 -35 -12 -20 -14 -21 -9 -4 4 15 1 21 -11 21 -12 0 -15
-8 -12 -29 3 -21 0 -28 -11 -28 -14 0 -14 -1 -1 -10 13 -8 12 -10 -2 -10 -20
0 -25 30 -5 30 6 1 -3 7 -20 15 -31 13 -45 35 -22 35 5 0 7 -5 4 -11 -4 -6 3
-5 14 3 20 12 20 13 4 17 -21 4 -43 20 -41 29 2 22 -5 30 -33 36 -25 5 -28 8
-17 20 7 7 20 11 28 9 8 -2 5 2 -7 9 -12 7 -22 16 -22 21 1 27 -10 33 -70 36
-11 1 -11 4 -1 16 9 10 9 15 1 15 -6 0 -13 -1 -14 -2 -2 -2 -12 3 -21 11 -13
11 -14 16 -4 22 10 7 10 11 0 21 -6 6 -12 17 -12 23 0 5 7 2 15 -9 7 -10 19
-15 25 -11 8 5 8 11 -1 21 -13 16 2 19 18 3 8 -8 13 -2 18 20 4 17 11 29 16
25 5 -3 9 -1 9 3 0 5 9 9 20 10 11 1 20 -2 20 -8z m-1765 -33 c-42 -30 -447
-238 -453 -232 -3 4 0 16 7 28 11 18 11 20 -4 15 -10 -4 -14 -3 -10 4 4 6 13
8 21 5 19 -7 105 35 97 47 -3 6 -1 7 5 3 6 -4 44 11 83 32 44 25 66 42 57 46
-7 3 -3 4 8 1 13 -4 45 8 85 31 72 41 112 55 118 42 1 -5 -5 -15 -14 -22z m63
15 c9 -5 28 -13 42 -19 40 -16 184 -86 190 -92 3 -3 53 -29 113 -58 83 -41
107 -57 107 -73 0 -12 -4 -19 -8 -17 -4 2 -104 56 -223 120 -118 64 -222 120
-232 124 -9 3 -17 10 -17 15 0 11 6 11 28 0z m74 -410 c6 14 36 16 261 15 140
-1 250 2 244 6 -7 4 -123 8 -259 8 -244 0 -248 0 -248 21 0 20 4 20 197 17
138 -2 197 0 200 8 4 11 77 3 106 -12 7 -3 3 2 -7 10 -32 26 -14 19 95 -34 57
-28 109 -48 116 -46 7 3 12 1 10 -4 -1 -5 50 -36 113 -68 63 -33 114 -64 113
-70 -2 -6 4 -9 11 -6 20 8 58 -14 50 -28 -4 -7 -2 -8 5 -4 11 7 142 -53 166
-76 6 -6 -27 8 -72 31 -46 23 -83 39 -83 36 0 -11 262 -135 272 -129 7 5 8 2
3 -6 -6 -10 -4 -12 9 -7 9 4 15 3 12 -2 -7 -11 22 -23 36 -14 7 4 8 1 3 -7 -6
-10 -4 -12 9 -7 9 4 15 3 12 -2 -7 -11 43 -33 56 -25 6 4 8 3 5 -3 -8 -13 41
-36 55 -27 6 4 8 3 5 -3 -3 -5 20 -22 53 -38 59 -28 85 -55 52 -55 -16 0 -17
-27 -15 -390 2 -339 1 -388 -12 -384 -12 5 -15 34 -15 166 0 87 -4 157 -9 154
-4 -3 -6 -17 -3 -31 l4 -25 -138 -2 -139 -2 138 -3 c129 -3 137 -5 137 -23 0
-19 -8 -20 -122 -22 l-123 -2 123 -3 c70 -2 122 -8 122 -13 0 -6 -6 -10 -12
-11 -10 0 -10 -2 0 -6 22 -9 12 -25 -13 -21 -14 3 -25 1 -25 -3 0 -5 11 -9 25
-9 18 0 25 -5 25 -20 0 -19 -7 -20 -267 -22 l-268 -3 268 -2 c256 -3 267 -4
267 -23 0 -18 -10 -19 -262 -20 -144 0 -264 -3 -267 -5 -2 -3 116 -5 262 -5
250 0 267 -1 267 -18 0 -10 -8 -18 -17 -19 -10 0 -69 -2 -130 -3 -67 -1 -111
-6 -107 -11 3 -6 40 -7 86 -3 94 7 171 -2 165 -19 -2 -7 -18 -12 -35 -13 -17
-1 -29 3 -26 8 3 4 1 8 -5 8 -5 0 -11 -5 -13 -11 -6 -18 -434 -25 -455 -7 -10
7 -14 8 -10 1 4 -6 3 -14 -1 -17 -5 -3 -9 5 -9 17 -1 47 -3 58 -13 52 -6 -4
-10 10 -10 35 l0 42 -80 -4 c-83 -3 -112 8 -37 15 l42 4 -43 1 c-32 2 -44 -2
-49 -15 -4 -10 -1 -19 6 -21 9 -3 10 -7 3 -11 -6 -4 -12 -23 -14 -44 -1 -20
-6 -37 -11 -37 -4 0 -6 -8 -3 -17 3 -10 1 -25 -4 -33 -7 -10 -10 18 -10 88 l0
102 127 0 c69 0 124 2 122 4 -9 9 -264 8 -259 0 3 -5 -58 -11 -135 -14 l-140
-6 138 -2 c75 -1 137 -4 137 -6 0 -32 -14 -36 -139 -38 -69 0 -111 -3 -93 -5
18 -2 30 -9 27 -14 -4 -5 -2 -9 4 -9 5 0 12 4 16 10 3 5 45 8 93 7 76 -2 87
-4 90 -21 3 -12 -1 -17 -10 -14 -7 3 -23 1 -35 -3 -13 -5 -25 -4 -28 1 -4 7
-13 6 -26 0 -11 -6 -53 -9 -94 -7 -41 1 -75 -1 -75 -5 0 -4 10 -8 23 -9 l22 0
-23 -11 c-12 -6 -22 -18 -21 -27 5 -56 -2 -101 -16 -101 -11 0 -15 14 -17 58
-1 35 -3 44 -5 25 -4 -33 -5 -33 -60 -33 -46 0 -56 3 -60 20 -3 11 -13 20 -22
21 -12 0 -11 2 4 9 18 8 18 9 2 9 -10 1 -16 5 -13 10 3 5 -9 12 -27 17 -25 6
-8 10 78 14 l110 6 -107 2 c-60 1 -108 5 -108 10 0 4 -118 7 -262 7 -145 0
-303 1 -353 3 -58 2 -91 0 -93 -7 -2 -6 -16 -12 -30 -12 -17 -1 -21 -3 -9 -6
21 -6 22 -29 1 -37 -9 -3 -46 -7 -82 -8 l-67 -2 70 -6 c51 -5 59 -7 28 -8 -38
-2 -47 -8 -45 -32 1 -11 -63 -9 -70 3 -5 7 -7 0 -7 -18 0 -16 3 -24 6 -17 2 6
16 12 30 12 25 0 25 -1 9 -19 -10 -11 -24 -17 -31 -15 -7 3 -15 -2 -18 -10 -4
-9 -11 -16 -17 -16 -16 0 -14 462 3 479 10 11 9 12 -3 6 -9 -5 -12 -4 -7 1 5
5 18 10 30 11 37 3 103 21 87 23 -46 6 -59 6 -55 1 2 -4 -14 -7 -36 -7 -21 -1
-39 0 -39 2 0 1 28 17 63 34 34 18 98 51 142 75 171 92 361 191 378 198 15 5
18 2 15 -15 -2 -12 3 -23 12 -25 13 -4 13 -3 0 6 -10 7 -11 11 -2 11 6 0 12 7
12 16 0 9 3 14 8 12 4 -2 45 -23 90 -46 46 -24 81 -38 77 -33 -9 15 1 14 36
-4 16 -9 27 -20 24 -25 -4 -6 1 -7 11 -3 12 4 15 3 10 -5 -5 -8 -1 -10 10 -5
12 4 15 3 10 -5 -5 -8 -1 -10 10 -5 11 4 15 3 10 -5 -3 -6 2 -15 12 -21 14 -8
19 -6 19 5 0 8 -41 36 -92 64 -85 46 -132 65 -95 39 10 -7 11 -9 2 -7 -30 8
-14 23 28 29 l45 6 -53 1 c-29 1 -67 9 -83 18 -17 8 -33 13 -37 10 -3 -3 -1
-6 4 -6 6 0 19 -7 30 -15 10 -9 -5 -4 -34 10 -49 24 -54 24 -82 10 -33 -17
-44 -19 -36 -6 4 5 -3 7 -14 4 -11 -3 -23 -9 -26 -14 -3 -5 -47 -10 -97 -11
l-92 -1 80 -7 c57 -4 88 -2 107 7 51 25 43 13 -12 -18 -107 -60 -520 -271
-520 -266 0 3 40 27 90 53 49 26 88 49 86 52 -2 2 -14 -2 -26 -8 -12 -6 -58
-15 -103 -19 -45 -5 -65 -9 -44 -10 26 -1 37 -6 37 -16 0 -20 -40 -35 -98 -36
l-47 -2 43 -6 c62 -11 72 -27 21 -35 -69 -11 -610 -6 -603 6 4 6 -1 8 -14 4
-11 -4 -30 -1 -41 6 -23 14 -29 30 -8 23 6 -2 37 0 67 4 l55 9 -60 2 c-33 1
-64 2 -68 1 -4 -1 -18 5 -29 14 -13 8 -32 12 -45 9 -13 -4 -23 -2 -23 3 0 11
-9 10 289 12 129 0 232 3 230 6 -3 2 -105 5 -227 6 -159 1 -222 4 -222 13 0 7
-4 6 -9 -3 -6 -9 -11 -10 -15 -2 -4 6 -12 8 -18 5 -6 -4 -8 -2 -4 4 3 5 0 13
-6 15 -7 3 215 6 494 6 488 0 508 1 545 20 45 24 40 27 -11 6 -53 -22 -1001
-22 -1030 1 -11 7 -27 14 -35 14 -14 0 -14 -2 -1 -11 13 -9 13 -10 0 -6 -8 2
-15 10 -15 18 0 12 29 14 170 12 111 -1 153 1 120 6 -27 5 -95 9 -150 10 -74
1 -103 5 -111 16 -6 8 -13 13 -15 11 -2 -3 -20 -1 -39 4 -24 5 15 9 125 11
l160 3 -120 7 c-115 6 -131 8 -165 22 -8 3 -24 8 -35 10 -11 3 52 6 140 8
l160 2 -130 8 c-71 3 -138 7 -148 8 -10 0 -15 6 -12 11 4 6 10 8 15 5 4 -3 13
2 19 9 10 12 52 15 206 16 178 1 194 -1 198 -17 4 -15 5 -14 6 3 1 21 -3 21
-214 26 -152 3 -219 8 -228 17 -9 10 -9 11 4 6 9 -3 21 0 27 8 8 9 35 13 99
11 54 -1 80 1 68 6 -11 5 -50 9 -87 9 -39 1 -72 6 -80 14 -7 7 -23 12 -36 11
-12 -1 -25 3 -28 8 -3 4 -2 8 3 7 4 -1 55 0 113 2 l105 3 -95 5 c-75 5 -95 9
-95 21 0 12 24 16 135 20 l135 6 -125 4 -125 5 33 18 c29 16 55 18 212 15 99
-2 180 0 180 5 0 4 -75 7 -167 7 l-168 1 38 20 c34 18 54 20 168 17 71 -2 129
0 129 4 0 4 -55 8 -122 10 l-123 3 -116 -57 c-124 -62 -129 -64 -129 -48 0 6
7 10 15 10 8 0 15 5 15 10 0 6 8 14 18 17 9 4 35 17 56 31 22 13 44 25 50 26
6 1 22 9 36 18 14 9 42 24 62 34 20 9 35 21 32 25 -2 4 1 11 7 15 8 4 9 3 5
-4 -10 -17 -1 -15 45 8 24 13 37 25 33 32 -4 6 -3 8 4 4 14 -9 65 12 57 24 -4
6 1 7 11 3 12 -4 15 -3 10 5 -4 7 -2 10 6 7 7 -2 87 33 178 80 91 46 161 84
157 85 -4 0 -30 -11 -57 -25 -28 -14 -50 -23 -50 -20 0 10 101 56 110 50 6 -4
29 3 53 13 99 47 123 57 137 58 9 1 26 6 38 13 14 8 22 8 22 1 0 -5 -4 -10 -8
-10 -5 0 -17 -7 -28 -16 -18 -15 -18 -15 3 -5 12 6 91 11 180 11 87 0 182 2
211 4 41 4 52 2 52 -10 0 -8 4 -14 9 -14 6 0 12 24 14 53 2 28 4 -9 6 -83 1
-74 4 -165 5 -202 2 -52 0 -68 -10 -68 -8 0 -14 5 -14 10 0 6 -66 9 -182 8
l-183 -2 175 -3 c96 -2 179 -8 184 -13 6 -6 51 -10 101 -10 l90 0 -3 167 c-2
93 0 193 5 223 8 55 8 55 13 -40 3 -52 8 -88 12 -79z m1368 97 c0 -17 3 -19 9
-9 6 9 11 10 15 2 4 -6 2 -11 -3 -11 -6 0 -11 -4 -11 -10 0 -5 7 -7 15 -4 8 4
15 2 15 -4 0 -12 -29 -24 -40 -17 -5 3 -6 13 -3 23 6 15 5 15 -11 3 -17 -14
-17 -15 0 -28 10 -7 25 -13 35 -13 12 0 15 -6 11 -25 -6 -32 -42 -61 -54 -42
-8 14 -38 16 -55 4 -9 -7 -7 -14 10 -28 12 -10 19 -18 15 -19 -13 0 -17 -1
-49 -10 -19 -6 -38 -6 -49 0 -16 8 -20 5 -25 -21 -5 -22 -3 -36 9 -47 14 -14
16 -14 22 1 3 9 10 14 15 11 5 -3 9 0 9 7 0 7 3 9 7 6 3 -4 -2 -17 -13 -29
l-19 -22 25 17 c32 22 50 22 50 0 0 -14 -2 -15 -9 -4 -7 11 -12 10 -26 -6 -11
-13 -25 -19 -38 -15 -13 3 -25 -2 -33 -13 -8 -11 -14 -13 -14 -6 0 7 -4 9 -10
6 -5 -3 -42 10 -80 31 -61 32 -69 39 -58 52 8 10 8 13 2 9 -7 -4 -14 1 -17 12
-4 15 2 20 34 24 44 6 101 53 71 59 -12 3 -10 5 8 9 22 5 25 2 24 -22 0 -16
-7 -35 -14 -44 -16 -20 -6 -20 14 1 9 8 16 11 16 5 0 -6 5 -11 10 -11 6 0 5 9
-2 21 -10 17 -10 23 0 26 6 3 12 9 12 15 0 6 8 18 18 27 10 9 31 33 46 54 19
24 36 37 52 37 13 0 24 -4 24 -8 0 -5 7 -9 15 -9 18 0 20 23 3 30 -8 3 -6 6 5
6 11 1 17 -6 17 -21z m950 -625 c0 -95 -2 -173 -3 -173 -10 0 -51 43 -63 66
-20 37 -26 130 -10 143 7 6 16 8 19 5 3 -4 9 7 12 22 13 58 17 64 28 57 7 -3
4 3 -6 15 -20 22 -17 39 8 39 13 0 15 -24 15 -174z m-3065 -472 c13 -22 -14
-27 -145 -31 -87 -2 -51 -18 45 -20 l70 -1 -40 -14 c-22 -8 -67 -17 -99 -20
-33 -3 -62 -7 -64 -10 -5 -4 81 -9 125 -8 7 1 10 -4 6 -10 -4 -6 2 -8 15 -5
13 4 20 2 16 -4 -3 -5 -17 -7 -29 -4 -13 3 -27 2 -30 -4 -8 -14 -482 -14 -490
0 -4 6 -10 8 -15 5 -4 -3 -11 2 -14 11 -5 13 1 15 31 13 57 -3 197 0 192 5 -2
2 -24 5 -49 7 -25 2 -48 8 -52 14 -5 7 -8 6 -8 -1 0 -8 -11 -10 -32 -5 -18 4
-43 6 -56 5 -19 -1 -20 1 -10 14 11 13 10 14 -9 3 -19 -10 -23 -9 -23 4 0 13
19 15 122 15 67 0 119 2 116 5 -2 3 -57 5 -121 6 -65 1 -115 4 -112 7 3 3 0
11 -6 19 -10 11 45 13 324 13 197 0 338 -4 342 -9z m2490 -782 c50 0 106 -2
125 -5 30 -6 32 -8 15 -14 -17 -7 -17 -9 -2 -9 11 -1 17 -9 17 -26 0 -14 -3
-26 -7 -26 -65 -11 -173 -17 -178 -9 -8 14 86 32 131 25 36 -5 45 -4 41 7 -2
7 -10 12 -17 10 -7 -1 -18 2 -24 8 -7 5 -15 7 -18 5 -12 -12 -200 -6 -216 7
-13 11 -14 11 -7 -1 5 -10 4 -12 -3 -7 -7 4 -12 16 -12 28 0 18 4 19 33 13 17
-3 73 -6 122 -6z m575 -94 c0 -45 -3 -55 -17 -56 -17 -1 -17 -2 0 -6 30 -8 21
-40 -13 -45 -17 -3 -33 -1 -36 4 -3 4 -13 8 -23 8 -10 0 -26 11 -35 24 -14 23
-14 25 2 29 12 3 11 5 -5 6 -13 0 -23 6 -23 11 0 6 -8 10 -17 10 -24 0 -6 15
37 30 19 7 51 18 70 26 57 21 60 19 60 -41z m-2080 -384 c-22 -6 -23 -8 -7
-14 10 -4 50 -7 89 -7 60 0 69 -2 66 -17 -4 -24 -50 -33 -165 -31 -97 1 -104
-1 -122 -23 -11 -13 -20 -18 -21 -11 0 8 -6 6 -18 -5 -11 -10 -18 -20 -16 -23
6 -12 -107 -4 -115 8 -5 8 -11 13 -15 13 -34 -5 -78 2 -88 12 -6 8 -23 12 -37
10 -22 -2 -22 -1 4 7 17 5 37 7 46 5 9 -3 24 7 37 24 17 24 32 31 75 36 29 4
79 2 111 -4 61 -11 152 2 140 20 -3 5 10 9 28 8 30 -1 31 -2 8 -8z m1400 -144
c0 -8 15 -14 37 -15 21 -2 40 -7 43 -12 3 -5 16 -8 28 -5 12 2 22 0 22 -6 0
-5 3 -8 8 -8 4 1 14 1 22 0 13 -1 13 -2 0 -11 -20 -13 -4 -13 20 0 13 7 21 7
25 0 3 -5 15 -10 26 -10 24 0 26 -20 2 -21 -11 0 -13 -3 -5 -6 19 -7 14 -23
-7 -23 -11 0 -26 -8 -33 -18 -22 -29 -98 -57 -82 -29 6 9 4 9 -7 1 -21 -17
-52 -14 -38 3 6 7 16 10 23 6 8 -4 8 -2 -1 7 -9 10 -15 9 -32 -2 -12 -8 -18
-17 -15 -21 3 -3 1 -13 -4 -23 -9 -16 -10 -15 -16 4 -4 13 -16 22 -27 22 -11
0 -18 -4 -15 -9 3 -5 -5 -8 -18 -7 -26 1 -25 21 2 24 35 4 77 9 85 11 4 0 7 6
7 11 0 6 -12 8 -27 4 -22 -4 -24 -3 -13 5 11 8 5 9 -23 4 l-38 -6 7 34 c3 19
7 40 7 47 0 6 4 12 9 12 4 0 7 3 7 8 -1 4 -1 15 0 25 1 20 21 24 21 4z m617
-246 c-3 -15 2 -21 22 -27 14 -4 29 -7 34 -6 4 1 7 -59 5 -133 -2 -134 -7
-152 -36 -123 -6 6 -14 9 -17 6 -3 -3 7 -11 22 -19 16 -8 29 -24 31 -36 4 -26
2 -27 -32 -11 -20 9 -23 14 -15 25 9 10 2 17 -32 33 -24 11 -51 20 -59 20 -10
1 -9 4 5 10 17 7 17 9 3 9 -16 1 -16 3 3 22 16 16 18 23 8 35 -9 11 -7 14 12
15 l24 1 -25 7 c-17 5 -21 9 -12 15 7 4 10 12 6 17 -3 5 -10 7 -15 4 -5 -4 -9
-1 -9 5 0 6 8 10 18 8 13 -2 17 4 16 25 -1 16 4 27 12 27 10 0 12 9 8 30 -4
16 -4 36 -1 45 9 22 30 19 24 -4z"/>
<path d="M1220 2950 c0 -5 -8 -10 -19 -10 -17 0 -18 -10 -17 -142 1 -79 -1
-168 -4 -198 l-5 -55 125 -1 c69 -1 119 0 113 3 -18 6 -18 374 -2 390 9 9 6
10 -11 6 -13 -4 -25 -1 -31 8 -6 11 -11 11 -21 1 -14 -14 -94 -16 -103 -2 -3
6 -10 10 -16 10 -5 0 -9 -4 -9 -10z"/>
<path d="M3090 2950 c0 -5 -8 -10 -17 -10 -17 0 -18 -14 -13 -192 l5 -191 80
1 c44 0 90 1 103 1 l22 1 0 188 0 187 -25 12 c-14 6 -25 7 -25 2 0 -5 -25 -9
-55 -9 -30 0 -55 5 -55 10 0 6 -4 10 -10 10 -5 0 -10 -4 -10 -10z"/>
<path d="M2616 2448 c5 -8 2 -9 -9 -5 -42 16 -8 -7 91 -62 59 -33 116 -67 127
-76 l20 -17 -20 7 c-11 4 -25 9 -32 12 -7 3 -10 -3 -9 -14 2 -12 11 -17 25
-16 18 2 21 -2 21 -37 0 -39 13 -60 25 -40 7 12 25 4 25 -11 0 -5 -12 -10 -27
-10 -28 -2 -28 -2 -3 -6 14 -3 31 -10 38 -16 10 -8 15 -8 21 1 4 6 41 13 86
15 l80 3 -82 2 c-47 1 -83 6 -83 12 0 6 6 9 13 8 6 -2 11 3 10 10 -2 8 16 12
65 14 67 1 59 3 -75 14 -54 4 -73 10 -73 20 0 10 14 14 48 16 34 1 38 2 16 5
-26 3 -32 8 -30 27 1 22 6 23 66 25 99 3 85 11 -21 11 -63 1 -102 5 -119 15
-33 19 -49 19 -24 0 10 -9 -5 -4 -33 10 -54 26 -76 46 -25 23 20 -10 69 -12
192 -8 l165 6 -170 2 c-125 2 -177 6 -195 17 -30 17 -44 19 -35 5 4 -6 -10 -3
-29 7 -20 9 -34 18 -32 21 2 2 13 -1 23 -6 10 -5 38 -6 63 -2 l45 7 -47 2
c-26 0 -58 5 -73 11 -19 7 -24 7 -19 -2z"/>
<path d="M1926 2081 c-11 -17 29 -23 148 -21 115 1 118 0 113 -19 -5 -19 -1
-21 44 -21 42 0 49 3 49 20 0 19 7 20 123 20 145 0 193 16 66 22 -185 9 -538
8 -543 -1z"/>
</g>
</svg>
